<svg width="122" height="122" viewBox="0 0 122 122" fill="none" xmlns="http://www.w3.org/2000/svg">
<path d="M49.0033 80.7234C49.9391 80.7234 50.6977 79.9647 50.6977 79.0289C50.6977 78.0931 49.9391 77.3345 49.0033 77.3345C48.0675 77.3345 47.3088 78.0931 47.3088 79.0289C47.3088 79.9647 48.0675 80.7234 49.0033 80.7234Z" fill="#00C7FB"/>
<path d="M49.0033 94.0078C49.9391 94.0078 50.6977 93.2492 50.6977 92.3133C50.6977 91.3775 49.9391 90.6189 49.0033 90.6189C48.0675 90.6189 47.3088 91.3775 47.3088 92.3133C47.3088 93.2492 48.0675 94.0078 49.0033 94.0078Z" fill="#00C7FB"/>
<path d="M49.0033 100.65C49.9391 100.65 50.6977 99.8915 50.6977 98.9557C50.6977 98.0199 49.9391 97.2612 49.0033 97.2612C48.0675 97.2612 47.3088 98.0199 47.3088 98.9557C47.3088 99.8915 48.0675 100.65 49.0033 100.65Z" fill="#00C7FB"/>
<path d="M49.0033 107.36C49.9391 107.36 50.6977 106.601 50.6977 105.666C50.6977 104.73 49.9391 103.971 49.0033 103.971C48.0675 103.971 47.3088 104.73 47.3088 105.666C47.3088 106.601 48.0675 107.36 49.0033 107.36Z" fill="#00C7FB"/>
<path d="M49.0033 87.3657C49.9391 87.3657 50.6977 86.6071 50.6977 85.6712C50.6977 84.7354 49.9391 83.9768 49.0033 83.9768C48.0675 83.9768 47.3088 84.7354 47.3088 85.6712C47.3088 86.6071 48.0675 87.3657 49.0033 87.3657Z" fill="#00C7FB"/>
<path d="M43.0389 104.039C43.9747 104.039 44.7334 103.28 44.7334 102.344C44.7334 101.409 43.9747 100.65 43.0389 100.65C42.1031 100.65 41.3445 101.409 41.3445 102.344C41.3445 103.28 42.1031 104.039 43.0389 104.039Z" fill="#00C7FB"/>
<path d="M31.0421 97.3288C31.9779 97.3288 32.7365 96.5702 32.7365 95.6344C32.7365 94.6986 31.9779 93.9399 31.0421 93.9399C30.1063 93.9399 29.3477 94.6986 29.3477 95.6344C29.3477 96.5702 30.1063 97.3288 31.0421 97.3288Z" fill="#00C7FB"/>
<path d="M37.0746 100.65C38.0104 100.65 38.769 99.8915 38.769 98.9557C38.769 98.0199 38.0104 97.2612 37.0746 97.2612C36.1388 97.2612 35.3801 98.0199 35.3801 98.9557C35.3801 99.8915 36.1388 100.65 37.0746 100.65Z" fill="#00C7FB"/>
<path d="M72.9967 107.36C73.9325 107.36 74.6911 106.601 74.6911 105.666C74.6911 104.73 73.9325 103.971 72.9967 103.971C72.0609 103.971 71.3022 104.73 71.3022 105.666C71.3022 106.601 72.0609 107.36 72.9967 107.36Z" fill="white"/>
<path d="M66.9645 104.039C67.9003 104.039 68.6589 103.28 68.6589 102.344C68.6589 101.409 67.9003 100.65 66.9645 100.65C66.0286 100.65 65.27 101.409 65.27 102.344C65.27 103.28 66.0286 104.039 66.9645 104.039Z" fill="white"/>
<path d="M55.0355 97.3288C55.9713 97.3288 56.73 96.5702 56.73 95.6344C56.73 94.6986 55.9713 93.9399 55.0355 93.9399C54.0997 93.9399 53.3411 94.6986 53.3411 95.6344C53.3411 96.5702 54.0997 97.3288 55.0355 97.3288Z" fill="white"/>
<path d="M61.0001 100.65C61.9359 100.65 62.6946 99.8915 62.6946 98.9557C62.6946 98.0199 61.9359 97.2612 61.0001 97.2612C60.0643 97.2612 59.3057 98.0199 59.3057 98.9557C59.3057 99.8915 60.0643 100.65 61.0001 100.65Z" fill="white"/>
<path d="M49.0033 67.4389C49.9391 67.4389 50.6977 66.6803 50.6977 65.7445C50.6977 64.8087 49.9391 64.05 49.0033 64.05C48.0675 64.05 47.3088 64.8087 47.3088 65.7445C47.3088 66.6803 48.0675 67.4389 49.0033 67.4389Z" fill="#00C7FB"/>
<path d="M49.0033 74.081C49.9391 74.081 50.6977 73.3224 50.6977 72.3866C50.6977 71.4508 49.9391 70.6921 49.0033 70.6921C48.0675 70.6921 47.3088 71.4508 47.3088 72.3866C47.3088 73.3224 48.0675 74.081 49.0033 74.081Z" fill="#00C7FB"/>
<path d="M43.0389 64.1176C43.9747 64.1176 44.7334 63.359 44.7334 62.4232C44.7334 61.4874 43.9747 60.7288 43.0389 60.7288C42.1031 60.7288 41.3445 61.4874 41.3445 62.4232C41.3445 63.359 42.1031 64.1176 43.0389 64.1176Z" fill="#00C7FB"/>
<path d="M37.0746 60.7966C38.0104 60.7966 38.769 60.038 38.769 59.1022C38.769 58.1663 38.0104 57.4077 37.0746 57.4077C36.1388 57.4077 35.3801 58.1663 35.3801 59.1022C35.3801 60.038 36.1388 60.7966 37.0746 60.7966Z" fill="#00C7FB"/>
<path d="M31.0421 57.4756C31.9779 57.4756 32.7365 56.7169 32.7365 55.7811C32.7365 54.8453 31.9779 54.0867 31.0421 54.0867C30.1063 54.0867 29.3477 54.8453 29.3477 55.7811C29.3477 56.7169 30.1063 57.4756 31.0421 57.4756Z" fill="#00C7FB"/>
<path d="M49.0033 47.4446C49.9391 47.4446 50.6977 46.6859 50.6977 45.7501C50.6977 44.8143 49.9391 44.0557 49.0033 44.0557C48.0675 44.0557 47.3088 44.8143 47.3088 45.7501C47.3088 46.6859 48.0675 47.4446 49.0033 47.4446Z" fill="white"/>
<path d="M49.0033 54.1545C49.9391 54.1545 50.6977 53.3959 50.6977 52.4601C50.6977 51.5243 49.9391 50.7656 49.0033 50.7656C48.0675 50.7656 47.3088 51.5243 47.3088 52.4601C47.3088 53.3959 48.0675 54.1545 49.0033 54.1545Z" fill="white"/>
<path d="M49.0033 60.7966C49.9391 60.7966 50.6977 60.038 50.6977 59.1022C50.6977 58.1663 49.9391 57.4077 49.0033 57.4077C48.0675 57.4077 47.3088 58.1663 47.3088 59.1022C47.3088 60.038 48.0675 60.7966 49.0033 60.7966Z" fill="white"/>
<path d="M90.9579 104.039C91.8937 104.039 92.6523 103.28 92.6523 102.344C92.6523 101.409 91.8937 100.65 90.9579 100.65C90.0221 100.65 89.2634 101.409 89.2634 102.344C89.2634 103.28 90.0221 104.039 90.9579 104.039Z" fill="#00C7FB"/>
<path d="M78.961 84.0444C79.8969 84.0444 80.6555 83.2858 80.6555 82.35C80.6555 81.4141 79.8969 80.6555 78.961 80.6555C78.0252 80.6555 77.2666 81.4141 77.2666 82.35C77.2666 83.2858 78.0252 84.0444 78.961 84.0444Z" fill="white"/>
<path d="M78.961 90.6867C79.8969 90.6867 80.6555 89.9281 80.6555 88.9923C80.6555 88.0565 79.8969 87.2979 78.961 87.2979C78.0252 87.2979 77.2666 88.0565 77.2666 88.9923C77.2666 89.9281 78.0252 90.6867 78.961 90.6867Z" fill="white"/>
<path d="M78.961 97.3288C79.8969 97.3288 80.6555 96.5702 80.6555 95.6344C80.6555 94.6986 79.8969 93.9399 78.961 93.9399C78.0252 93.9399 77.2666 94.6986 77.2666 95.6344C77.2666 96.5702 78.0252 97.3288 78.961 97.3288Z" fill="white"/>
<path d="M84.9256 100.65C85.8615 100.65 86.6201 99.8915 86.6201 98.9557C86.6201 98.0199 85.8615 97.2612 84.9256 97.2612C83.9898 97.2612 83.2312 98.0199 83.2312 98.9557C83.2312 99.8915 83.9898 100.65 84.9256 100.65Z" fill="#00C7FB"/>
<path d="M90.9579 84.0444C91.8937 84.0444 92.6523 83.2858 92.6523 82.35C92.6523 81.4141 91.8937 80.6555 90.9579 80.6555C90.0221 80.6555 89.2634 81.4141 89.2634 82.35C89.2634 83.2858 90.0221 84.0444 90.9579 84.0444Z" fill="#00C7FB"/>
<path d="M78.961 77.4023C79.8969 77.4023 80.6555 76.6437 80.6555 75.7079C80.6555 74.7721 79.8969 74.0134 78.961 74.0134C78.0252 74.0134 77.2666 74.7721 77.2666 75.7079C77.2666 76.6437 78.0252 77.4023 78.961 77.4023Z" fill="white"/>
<path d="M84.9256 80.7234C85.8615 80.7234 86.6201 79.9647 86.6201 79.0289C86.6201 78.0931 85.8615 77.3345 84.9256 77.3345C83.9898 77.3345 83.2312 78.0931 83.2312 79.0289C83.2312 79.9647 83.9898 80.7234 84.9256 80.7234Z" fill="#00C7FB"/>
<path d="M25.0777 94.0078C26.0136 94.0078 26.7722 93.2492 26.7722 92.3133C26.7722 91.3775 26.0136 90.6189 25.0777 90.6189C24.1419 90.6189 23.3833 91.3775 23.3833 92.3133C23.3833 93.2492 24.1419 94.0078 25.0777 94.0078Z" fill="#00C7FB"/>
<path d="M19.1134 64.1176C20.0492 64.1176 20.8078 63.359 20.8078 62.4232C20.8078 61.4874 20.0492 60.7288 19.1134 60.7288C18.1776 60.7288 17.4189 61.4874 17.4189 62.4232C17.4189 63.359 18.1776 64.1176 19.1134 64.1176Z" fill="#00C7FB"/>
<path d="M19.1134 70.76C20.0492 70.76 20.8078 70.0014 20.8078 69.0655C20.8078 68.1297 20.0492 67.3711 19.1134 67.3711C18.1776 67.3711 17.4189 68.1297 17.4189 69.0655C17.4189 70.0014 18.1776 70.76 19.1134 70.76Z" fill="#00C7FB"/>
<path d="M19.1134 77.4023C20.0492 77.4023 20.8078 76.6437 20.8078 75.7079C20.8078 74.7721 20.0492 74.0134 19.1134 74.0134C18.1776 74.0134 17.4189 74.7721 17.4189 75.7079C17.4189 76.6437 18.1776 77.4023 19.1134 77.4023Z" fill="#00C7FB"/>
<path d="M19.1134 84.0444C20.0492 84.0444 20.8078 83.2858 20.8078 82.35C20.8078 81.4141 20.0492 80.6555 19.1134 80.6555C18.1776 80.6555 17.4189 81.4141 17.4189 82.35C17.4189 83.2858 18.1776 84.0444 19.1134 84.0444Z" fill="#00C7FB"/>
<path d="M19.1134 90.6867C20.0492 90.6867 20.8078 89.9281 20.8078 88.9923C20.8078 88.0565 20.0492 87.2979 19.1134 87.2979C18.1776 87.2979 17.4189 88.0565 17.4189 88.9923C17.4189 89.9281 18.1776 90.6867 19.1134 90.6867Z" fill="#00C7FB"/>
<path d="M25.0777 54.1545C26.0136 54.1545 26.7722 53.3959 26.7722 52.4601C26.7722 51.5243 26.0136 50.7656 25.0777 50.7656C24.1419 50.7656 23.3833 51.5243 23.3833 52.4601C23.3833 53.3959 24.1419 54.1545 25.0777 54.1545Z" fill="#00C7FB"/>
<path d="M19.1134 50.7656C20.0492 50.7656 20.8078 50.007 20.8078 49.0712C20.8078 48.1353 20.0492 47.3767 19.1134 47.3767C18.1776 47.3767 17.4189 48.1353 17.4189 49.0712C17.4189 50.007 18.1776 50.7656 19.1134 50.7656Z" fill="#00C7FB"/>
<path d="M19.1134 57.4756C20.0492 57.4756 20.8078 56.7169 20.8078 55.7811C20.8078 54.8453 20.0492 54.0867 19.1134 54.0867C18.1776 54.0867 17.4189 54.8453 17.4189 55.7811C17.4189 56.7169 18.1776 57.4756 19.1134 57.4756Z" fill="#00C7FB"/>
<path d="M78.961 104.039C79.8969 104.039 80.6555 103.28 80.6555 102.344C80.6555 101.409 79.8969 100.65 78.961 100.65C78.0252 100.65 77.2666 101.409 77.2666 102.344C77.2666 103.28 78.0252 104.039 78.961 104.039Z" fill="white"/>
<path d="M78.961 110.681C79.8969 110.681 80.6555 109.922 80.6555 108.987C80.6555 108.051 79.8969 107.292 78.961 107.292C78.0252 107.292 77.2666 108.051 77.2666 108.987C77.2666 109.922 78.0252 110.681 78.961 110.681Z" fill="white"/>
<path d="M78.961 70.76C79.8969 70.76 80.6555 70.0014 80.6555 69.0655C80.6555 68.1297 79.8969 67.3711 78.961 67.3711C78.0252 67.3711 77.2666 68.1297 77.2666 69.0655C77.2666 70.0014 78.0252 70.76 78.961 70.76Z" fill="white"/>
<path d="M78.961 64.1176C79.8969 64.1176 80.6555 63.359 80.6555 62.4232C80.6555 61.4874 79.8969 60.7288 78.961 60.7288C78.0252 60.7288 77.2666 61.4874 77.2666 62.4232C77.2666 63.359 78.0252 64.1176 78.961 64.1176Z" fill="white"/>
<path d="M96.9222 107.36C97.858 107.36 98.6167 106.601 98.6167 105.666C98.6167 104.73 97.858 103.971 96.9222 103.971C95.9864 103.971 95.2278 104.73 95.2278 105.666C95.2278 106.601 95.9864 107.36 96.9222 107.36Z" fill="#00C7FB"/>
<path d="M96.9222 87.3657C97.858 87.3657 98.6167 86.6071 98.6167 85.6712C98.6167 84.7354 97.858 83.9768 96.9222 83.9768C95.9864 83.9768 95.2278 84.7354 95.2278 85.6712C95.2278 86.6071 95.9864 87.3657 96.9222 87.3657Z" fill="#00C7FB"/>
<path d="M102.887 90.6867C103.822 90.6867 104.581 89.9281 104.581 88.9923C104.581 88.0565 103.822 87.2979 102.887 87.2979C101.951 87.2979 101.192 88.0565 101.192 88.9923C101.192 89.9281 101.951 90.6867 102.887 90.6867Z" fill="#00C7FB"/>
<path d="M102.887 97.3288C103.822 97.3288 104.581 96.5702 104.581 95.6344C104.581 94.6986 103.822 93.9399 102.887 93.9399C101.951 93.9399 101.192 94.6986 101.192 95.6344C101.192 96.5702 101.951 97.3288 102.887 97.3288Z" fill="#00C7FB"/>
<path d="M102.887 104.039C103.822 104.039 104.581 103.28 104.581 102.344C104.581 101.409 103.822 100.65 102.887 100.65C101.951 100.65 101.192 101.409 101.192 102.344C101.192 103.28 101.951 104.039 102.887 104.039Z" fill="#00C7FB"/>
<path d="M102.887 110.681C103.822 110.681 104.581 109.922 104.581 108.987C104.581 108.051 103.822 107.292 102.887 107.292C101.951 107.292 101.192 108.051 101.192 108.987C101.192 109.922 101.951 110.681 102.887 110.681Z" fill="#00C7FB"/>
<path d="M49.0033 27.5178C49.9391 27.5178 50.6977 26.7592 50.6977 25.8234C50.6977 24.8875 49.9391 24.1289 49.0033 24.1289C48.0675 24.1289 47.3088 24.8875 47.3088 25.8234C47.3088 26.7592 48.0675 27.5178 49.0033 27.5178Z" fill="white"/>
<path d="M49.0033 34.1601C49.9391 34.1601 50.6977 33.4015 50.6977 32.4657C50.6977 31.5299 49.9391 30.7712 49.0033 30.7712C48.0675 30.7712 47.3088 31.5299 47.3088 32.4657C47.3088 33.4015 48.0675 34.1601 49.0033 34.1601Z" fill="white"/>
<path d="M49.0033 40.8022C49.9391 40.8022 50.6977 40.0436 50.6977 39.1078C50.6977 38.172 49.9391 37.4133 49.0033 37.4133C48.0675 37.4133 47.3088 38.172 47.3088 39.1078C47.3088 40.0436 48.0675 40.8022 49.0033 40.8022Z" fill="white"/>
<path d="M78.961 44.1233C79.8969 44.1233 80.6555 43.3646 80.6555 42.4288C80.6555 41.493 79.8969 40.7344 78.961 40.7344C78.0252 40.7344 77.2666 41.493 77.2666 42.4288C77.2666 43.3646 78.0252 44.1233 78.961 44.1233Z" fill="white"/>
<path d="M78.961 57.4756C79.8969 57.4756 80.6555 56.7169 80.6555 55.7811C80.6555 54.8453 79.8969 54.0867 78.961 54.0867C78.0252 54.0867 77.2666 54.8453 77.2666 55.7811C77.2666 56.7169 78.0252 57.4756 78.961 57.4756Z" fill="white"/>
<path d="M78.961 50.7656C79.8969 50.7656 80.6555 50.007 80.6555 49.0712C80.6555 48.1353 79.8969 47.3767 78.961 47.3767C78.0252 47.3767 77.2666 48.1353 77.2666 49.0712C77.2666 50.007 78.0252 50.7656 78.961 50.7656Z" fill="white"/>
<path d="M72.9967 34.1601C73.9325 34.1601 74.6911 33.4015 74.6911 32.4657C74.6911 31.5299 73.9325 30.7712 72.9967 30.7712C72.0609 30.7712 71.3022 31.5299 71.3022 32.4657C71.3022 33.4015 72.0609 34.1601 72.9967 34.1601Z" fill="white"/>
<path d="M66.9645 30.8388C67.9003 30.8388 68.6589 30.0802 68.6589 29.1444C68.6589 28.2086 67.9003 27.45 66.9645 27.45C66.0286 27.45 65.27 28.2086 65.27 29.1444C65.27 30.0802 66.0286 30.8388 66.9645 30.8388Z" fill="white"/>
<path d="M61.0001 27.5178C61.9359 27.5178 62.6946 26.7592 62.6946 25.8234C62.6946 24.8875 61.9359 24.1289 61.0001 24.1289C60.0643 24.1289 59.3057 24.8875 59.3057 25.8234C59.3057 26.7592 60.0643 27.5178 61.0001 27.5178Z" fill="white"/>
<path d="M55.0355 24.1967C55.9713 24.1967 56.73 23.4381 56.73 22.5023C56.73 21.5665 55.9713 20.8079 55.0355 20.8079C54.0997 20.8079 53.3411 21.5665 53.3411 22.5023C53.3411 23.4381 54.0997 24.1967 55.0355 24.1967Z" fill="white"/>
<path d="M49.0033 20.8755C49.9391 20.8755 50.6977 20.1168 50.6977 19.181C50.6977 18.2452 49.9391 17.4866 49.0033 17.4866C48.0675 17.4866 47.3088 18.2452 47.3088 19.181C47.3088 20.1168 48.0675 20.8755 49.0033 20.8755Z" fill="white"/>
<path d="M78.961 37.4812C79.8969 37.4812 80.6555 36.7225 80.6555 35.7867C80.6555 34.8509 79.8969 34.0923 78.961 34.0923C78.0252 34.0923 77.2666 34.8509 77.2666 35.7867C77.2666 36.7225 78.0252 37.4812 78.961 37.4812Z" fill="white"/>
</svg>
